<svg xmlns="http://www.w3.org/2000/svg" xmlns:xlink="http://www.w3.org/1999/xlink" width="2245" zoomAndPan="magnify" viewBox="0 0 1683.75 1190.250009" height="1587" preserveAspectRatio="xMidYMid meet" version="1.0"><defs><clipPath id="c4efd9d942"><path d="M 679.324219 53.089844 L 1118.925781 53.089844 L 1118.925781 874.574219 L 679.324219 874.574219 Z M 679.324219 53.089844 " clip-rule="nonzero"/></clipPath><clipPath id="1ad554d840"><path d="M 557 829 L 733 829 L 733 1091 L 557 1091 Z M 557 829 " clip-rule="nonzero"/></clipPath><clipPath id="5e916492ba"><path d="M 632.824219 1121.472656 L 478.132812 1023.910156 L 614.078125 808.359375 L 768.769531 905.921875 Z M 632.824219 1121.472656 " clip-rule="nonzero"/></clipPath><clipPath id="31dee61738"><path d="M 632.824219 1121.472656 L 478.132812 1023.910156 L 614.078125 808.359375 L 768.769531 905.921875 Z M 632.824219 1121.472656 " clip-rule="nonzero"/></clipPath><clipPath id="4e10afb15d"><path d="M 947 827 L 1188 827 L 1188 1105 L 947 1105 Z M 947 827 " clip-rule="nonzero"/></clipPath><clipPath id="cbee7d9bae"><path d="M 1189.742188 1045.410156 L 1030.8125 1106.152344 L 945.988281 884.210938 L 1104.917969 823.46875 Z M 1189.742188 1045.410156 " clip-rule="nonzero"/></clipPath><clipPath id="2f5eb65e93"><path d="M 22 12 L 192 12 L 192 258 L 22 258 Z M 22 12 " clip-rule="nonzero"/></clipPath><clipPath id="212d39ea78"><path d="M 242.742188 218.410156 L 83.8125 279.152344 L -1.011719 57.210938 L 157.917969 -3.53125 Z M 242.742188 218.410156 " clip-rule="nonzero"/></clipPath><clipPath id="788045ca6a"><path d="M 83.570312 279.246094 L 242.503906 218.503906 L 157.675781 -3.441406 L -1.253906 57.300781 Z M 83.570312 279.246094 " clip-rule="nonzero"/></clipPath><clipPath id="9b6f80ffeb"><rect x="0" width="241" y="0" height="278"/></clipPath></defs><path fill="#9b071d" d="M 744.78125 475.46875 C 741.125 477.769531 736.292969 476.671875 733.992188 473.015625 C 731.6875 469.363281 732.789062 464.527344 736.441406 462.226562 C 736.53125 462.175781 766.019531 443.246094 800.269531 447.597656 C 809.144531 448.71875 816.324219 451.34375 822.027344 455.089844 C 830.003906 460.324219 835.050781 467.585938 837.789062 475.96875 C 840.359375 483.839844 840.796875 492.65625 839.664062 501.59375 C 837.839844 515.949219 831.90625 530.769531 824.332031 542.3125 C 823.675781 543.3125 821.902344 546.050781 820.441406 549.054688 C 819.414062 551.171875 818.488281 553.421875 818.253906 555.050781 L 818.554688 555.035156 C 819.621094 554.96875 820.621094 554.652344 821.222656 554.160156 C 824.558594 551.417969 829.484375 551.898438 832.226562 555.234375 C 833.277344 556.511719 833.855469 558.023438 833.984375 559.558594 L 834.003906 559.554688 C 834.117188 560.871094 835.648438 561.949219 837.683594 562.664062 C 839.378906 563.257812 841.378906 563.558594 843.457031 563.558594 C 845.535156 563.558594 847.539062 563.257812 849.230469 562.664062 C 851.265625 561.949219 852.796875 560.871094 852.910156 559.554688 C 853.261719 555.238281 857.050781 552.027344 861.371094 552.378906 C 863.136719 552.527344 864.714844 553.25 865.945312 554.34375 C 866.550781 554.734375 867.417969 554.980469 868.328125 555.03125 L 868.65625 555.050781 C 868.421875 553.421875 867.5 551.171875 866.472656 549.054688 C 865.011719 546.050781 863.238281 543.3125 862.582031 542.3125 C 860.210938 538.6875 861.226562 533.828125 864.847656 531.457031 C 868.472656 529.089844 873.332031 530.105469 875.703125 533.726562 C 876.480469 534.914062 878.597656 538.1875 880.570312 542.25 C 882.726562 546.6875 884.589844 551.964844 884.355469 556.699219 L 884.34375 556.929688 C 884.15625 559.90625 883.207031 562.425781 881.722656 564.507812 C 881.554688 564.769531 881.375 565.015625 881.179688 565.257812 C 879.394531 567.433594 877.039062 568.921875 874.402344 569.796875 C 872.148438 570.542969 869.746094 570.816406 867.410156 570.667969 C 866.5625 570.617188 865.707031 570.507812 864.851562 570.347656 C 862.292969 573.597656 858.609375 575.957031 854.382812 577.441406 C 850.941406 578.648438 847.164062 579.253906 843.457031 579.253906 C 839.75 579.253906 835.972656 578.648438 832.53125 577.441406 C 828.304688 575.957031 824.625 573.597656 822.066406 570.351562 C 821.222656 570.511719 820.375 570.617188 819.535156 570.671875 L 819.535156 570.667969 L 819.503906 570.671875 C 817.167969 570.816406 814.761719 570.542969 812.515625 569.796875 C 809.898438 568.929688 807.558594 567.445312 805.769531 565.257812 C 803.949219 563.039062 802.78125 560.261719 802.570312 556.898438 C 802.273438 552.113281 804.15625 546.746094 806.34375 542.25 C 808.3125 538.1875 810.433594 534.914062 811.210938 533.726562 C 817.628906 523.945312 822.640625 511.519531 824.148438 499.628906 C 825.003906 492.910156 824.71875 486.410156 822.890625 480.8125 C 821.226562 475.71875 818.199219 471.332031 813.445312 468.210938 C 809.605469 465.691406 804.621094 463.910156 798.304688 463.105469 C 769.707031 459.476562 744.851562 475.425781 744.78125 475.46875 " fill-opacity="1" fill-rule="nonzero"/><path fill="#9b071d" d="M 838.300781 614.488281 C 831.753906 607.238281 823.285156 611.273438 816.1875 614.65625 C 816.046875 614.71875 815.910156 614.78125 815.769531 614.835938 C 815 615.203125 814.25 615.558594 813.683594 615.820312 C 808.101562 618.40625 802.832031 619.910156 797.863281 620.664062 C 792.917969 621.410156 788.238281 621.398438 783.832031 620.953125 C 779.53125 620.53125 776.386719 616.703125 776.808594 612.402344 C 777.234375 608.101562 781.0625 604.957031 785.363281 605.378906 C 788.511719 605.699219 791.890625 605.703125 795.535156 605.148438 C 799.15625 604.605469 803.011719 603.496094 807.121094 601.597656 C 807.855469 601.253906 808.457031 600.972656 809.046875 600.691406 C 809.175781 600.621094 809.304688 600.550781 809.441406 600.488281 C 819.742188 595.582031 831.769531 589.855469 844.15625 598.75 C 856.539062 589.855469 868.566406 595.582031 878.871094 600.488281 C 879.003906 600.550781 879.132812 600.621094 879.261719 600.691406 C 879.851562 600.972656 880.453125 601.253906 881.1875 601.597656 C 885.296875 603.496094 889.152344 604.605469 892.773438 605.148438 C 896.417969 605.703125 899.796875 605.699219 902.945312 605.378906 C 907.246094 604.957031 911.074219 608.101562 911.5 612.402344 C 911.921875 616.703125 908.777344 620.53125 904.480469 620.953125 C 900.074219 621.398438 895.390625 621.410156 890.445312 620.664062 C 885.480469 619.910156 880.207031 618.40625 874.625 615.820312 C 874.058594 615.558594 873.3125 615.203125 872.542969 614.835938 C 872.402344 614.78125 872.265625 614.71875 872.125 614.65625 C 865.027344 611.273438 856.558594 607.238281 850.011719 614.488281 C 846.902344 617.945312 841.410156 617.945312 838.300781 614.488281 " fill-opacity="1" fill-rule="nonzero"/><path fill="#9b071d" d="M 802.976562 485.859375 C 787.5 481.597656 771.605469 484.644531 760.949219 488.351562 C 764.660156 499.699219 766.691406 516.816406 781.324219 516.816406 C 796.808594 516.816406 801.941406 498.351562 802.976562 485.859375 " fill-opacity="1" fill-rule="evenodd"/><path fill="#9b071d" d="M 959.121094 464.070312 C 962.777344 466.375 963.878906 471.207031 961.574219 474.863281 C 959.273438 478.519531 954.4375 479.617188 950.785156 477.316406 C 950.664062 477.238281 908.597656 450.246094 871.308594 474.484375 C 867.683594 476.839844 862.839844 475.808594 860.484375 472.1875 C 858.132812 468.5625 859.164062 463.714844 862.789062 461.363281 C 908.554688 431.613281 958.976562 463.980469 959.121094 464.070312 " fill-opacity="1" fill-rule="nonzero"/><path fill="#9b071d" d="M 814.417969 634.621094 C 810.285156 633.332031 807.980469 628.941406 809.265625 624.808594 C 810.554688 620.675781 814.945312 618.371094 819.074219 619.65625 C 828.058594 622.453125 836.828125 624.246094 845.257812 624.4375 C 853.457031 624.625 861.453125 623.320312 869.164062 619.964844 C 873.125 618.238281 877.734375 620.050781 879.464844 624.011719 C 881.191406 627.972656 879.378906 632.585938 875.417969 634.3125 C 865.492188 638.628906 855.3125 640.3125 844.949219 640.074219 C 834.820312 639.84375 824.632812 637.796875 814.417969 634.621094 " fill-opacity="1" fill-rule="nonzero"/><path fill="#9b071d" d="M 890.148438 485.859375 C 905.632812 481.597656 921.523438 484.644531 932.179688 488.351562 C 928.464844 499.699219 926.4375 516.816406 911.804688 516.816406 C 896.316406 516.816406 891.183594 498.351562 890.148438 485.859375 " fill-opacity="1" fill-rule="evenodd"/><g clip-path="url(#c4efd9d942)"><path fill="#9b071d" d="M 718.734375 542.640625 L 712.285156 479.921875 L 695.5625 470.515625 C 695.242188 470.648438 695.023438 470.789062 695.03125 470.933594 C 695.601562 477.367188 697.917969 509.347656 698.523438 517.6875 L 715.546875 543.914062 Z M 811.957031 684.246094 C 815.382812 687.042969 836.746094 702.589844 868.96875 684.753906 L 965.855469 591.90625 L 978.570312 471.464844 C 861.386719 397.058594 754.273438 435.796875 722.925781 450.144531 L 723.335938 450.570312 C 724.617188 451.90625 725.335938 453.578125 725.488281 455.289062 L 727.398438 473.867188 C 727.441406 474.136719 727.46875 474.414062 727.484375 474.695312 L 734.90625 546.894531 L 739.546875 592.046875 Z M 992.902344 489.644531 L 986.007812 552.128906 L 989.695312 553.609375 L 1006.71875 527.378906 C 1007.320312 519.042969 1009.640625 487.0625 1010.207031 480.621094 C 1010.21875 480.480469 1010.003906 480.339844 1009.679688 480.203125 Z M 868.519531 781.628906 C 865.214844 785.46875 862.558594 789.53125 860.433594 793.71875 L 860.429688 793.726562 C 850.09375 814.140625 852.578125 837.441406 855.671875 851.472656 C 858.757812 848.335938 862.035156 845.167969 865.457031 841.988281 L 865.460938 841.984375 C 904.484375 805.65625 962.335938 767.355469 977.550781 757.476562 C 977.058594 752.15625 975.277344 740.351562 969.003906 717.796875 C 966.710938 709.550781 963.582031 703.945312 960.300781 700.148438 C 960.316406 700.535156 960.320312 700.921875 960.316406 701.308594 C 960.277344 706.09375 958.84375 710.804688 956.042969 715.039062 C 953.773438 718.464844 950.632812 721.5625 946.640625 724.101562 C 943.964844 725.796875 939.742188 728.28125 934.964844 731.089844 C 916.4375 741.984375 888.503906 758.414062 868.519531 781.628906 Z M 950.558594 677.226562 C 960.667969 679.09375 976.539062 686.492188 984.085938 713.632812 C 994.136719 749.757812 993.367188 762.085938 993.363281 762.121094 C 993.1875 764.902344 991.578125 767.257812 989.296875 768.5 C 982.425781 772.894531 895.105469 829.070312 857.875 872.074219 C 856.308594 873.882812 854.09375 874.796875 851.875 874.773438 C 849.65625 874.796875 847.441406 873.882812 845.875 872.074219 C 808.644531 829.070312 721.324219 772.894531 714.453125 768.5 C 712.171875 767.257812 710.5625 764.902344 710.386719 762.121094 C 710.386719 762.085938 709.613281 749.757812 719.664062 713.632812 C 728.234375 682.816406 747.542969 677.449219 756.949219 676.734375 C 756.628906 657.003906 755.203125 642.011719 754.625 636.628906 L 725.832031 599.964844 L 725.84375 599.957031 C 724.957031 598.835938 724.363281 597.449219 724.207031 595.917969 L 720.394531 558.839844 L 715.402344 560.84375 L 715.402344 560.839844 C 712.003906 562.207031 708 561.027344 705.929688 557.839844 L 684.546875 524.898438 C 683.6875 523.742188 683.140625 522.328125 683.03125 520.785156 C 683.023438 520.667969 680.128906 480.5625 679.398438 472.28125 C 678.242188 459.1875 690.90625 455.394531 694.414062 454.597656 C 699.6875 453.410156 705.660156 458.210938 710.324219 460.832031 L 710.1875 459.484375 C 705.5 454.625 701.75 451.875 702.289062 444.347656 L 714.976562 267.992188 C 699.316406 250.695312 691.871094 234.082031 690.15625 216.808594 C 688.378906 198.96875 692.8125 180.953125 700.601562 160.992188 L 721.09375 108.457031 C 732.554688 79.082031 746.960938 63.675781 765.835938 57 C 784.183594 50.507812 805.835938 52.824219 832.753906 58.683594 C 855.503906 63.640625 874.078125 69.050781 889.019531 74.714844 L 889.152344 74.75 C 889.410156 74.820312 977.832031 99.535156 1045.476562 151.210938 C 1075.613281 174.226562 1098.601562 204.582031 1108.636719 233.777344 C 1111.414062 241.851562 1113.214844 249.878906 1113.929688 257.679688 C 1115.234375 262.996094 1122.675781 296.015625 1116.519531 335.589844 C 1109.976562 377.660156 1098.925781 425.554688 1098.894531 425.691406 C 1098.308594 428.199219 1096.574219 430.148438 1094.382812 431.101562 L 1033.8125 460.925781 C 1032.171875 461.738281 1030.386719 461.917969 1028.722656 461.566406 L 1001.375 457.257812 L 999.710938 467.828125 L 1004.734375 465.003906 C 1012.71875 460.527344 1026.820312 470.882812 1025.84375 481.972656 C 1025.113281 490.25 1022.21875 530.363281 1022.210938 530.476562 C 1022.101562 532.023438 1021.550781 533.429688 1020.691406 534.589844 L 999.3125 567.53125 C 997.363281 570.535156 993.699219 571.753906 990.445312 570.746094 C 988.429688 570.136719 986.207031 569.078125 984.222656 568.28125 L 981.277344 594.992188 C 981.003906 597.457031 980.78125 599.277344 978.753906 601.226562 L 953.957031 624.988281 C 953.46875 630.125 952.429688 641.820312 951.527344 657.152344 C 951.164062 663.359375 950.824219 670.125 950.558594 677.226562 Z M 851.875 777.527344 C 853.324219 775.441406 854.898438 773.394531 856.625 771.386719 C 878.183594 746.34375 907.570312 729.0625 927.054688 717.601562 C 929.660156 716.070312 932.066406 714.652344 934.425781 713.21875 C 934.300781 703.519531 934.40625 693.859375 934.660156 684.632812 C 934.65625 684.4375 934.664062 684.246094 934.675781 684.046875 C 934.953125 674.074219 935.402344 664.632812 935.890625 656.234375 C 936.210938 650.820312 936.554688 645.808594 936.882812 641.355469 L 879.082031 696.742188 C 878.625 697.183594 878.101562 697.578125 877.519531 697.90625 C 831.976562 723.78125 801.195312 695.679688 801.105469 695.601562 L 801.109375 695.601562 C 800.753906 695.292969 800.425781 694.945312 800.125 694.558594 L 772.027344 658.78125 C 772.773438 673.566406 773.128906 693.328125 771.730469 714.667969 C 773.328125 715.621094 774.96875 716.585938 776.695312 717.601562 C 796.179688 729.0625 825.566406 746.34375 847.128906 771.386719 C 848.851562 773.394531 850.425781 775.441406 851.875 777.527344 Z M 838.296875 841.988281 C 836.652344 828.023438 836.863281 810.527344 843.316406 793.726562 C 841.199219 789.539062 838.539062 785.472656 835.230469 781.628906 C 815.246094 758.414062 787.3125 741.984375 768.785156 731.089844 C 764.007812 728.28125 759.785156 725.796875 757.113281 724.101562 C 753.117188 721.5625 749.972656 718.464844 747.707031 715.039062 C 744.902344 710.804688 743.472656 706.09375 743.433594 701.308594 C 743.429688 700.921875 743.433594 700.535156 743.449219 700.148438 C 740.167969 703.949219 737.039062 709.550781 734.746094 717.796875 C 728.472656 740.351562 726.691406 752.15625 726.199219 757.476562 C 741.417969 767.355469 799.265625 805.660156 838.296875 841.988281 Z M 926.417969 391.117188 L 931.9375 356.097656 C 932.597656 351.828125 936.589844 348.90625 940.855469 349.566406 C 945.121094 350.226562 948.046875 354.21875 947.390625 358.488281 L 941.363281 396.722656 C 947.34375 399.15625 953.375 401.839844 959.453125 404.792969 L 967.523438 353.554688 C 968.183594 349.289062 972.179688 346.371094 976.445312 347.027344 C 980.710938 347.6875 983.632812 351.683594 982.976562 355.949219 L 974.085938 412.398438 C 979.703125 415.507812 985.351562 418.863281 991.027344 422.464844 L 1004.011719 340.027344 C 948.285156 309.105469 927.773438 272.277344 921.40625 257.441406 C 918.167969 257.953125 914.9375 258.34375 911.71875 258.632812 C 877.894531 261.632812 845.816406 252.769531 825.402344 245.109375 C 821.355469 243.601562 819.300781 239.097656 820.800781 235.050781 C 822.308594 231.003906 826.8125 228.945312 830.859375 230.453125 C 849.804688 237.5625 879.480469 245.800781 910.371094 243.058594 C 915.105469 242.636719 919.875 241.957031 924.640625 240.96875 C 924.773438 240.9375 924.914062 240.910156 925.050781 240.886719 C 941.128906 237.5 957.175781 230.628906 971.847656 218.542969 C 975.183594 215.796875 980.113281 216.28125 982.855469 219.613281 C 985.597656 222.949219 985.117188 227.875 981.78125 230.617188 C 967.613281 242.289062 952.367188 249.703125 936.949219 254.054688 C 943.671875 268.550781 963.703125 301.0625 1016.246094 328.847656 C 1018.738281 330.160156 1020.230469 332.625 1020.410156 335.242188 C 1021.007812 339.671875 1026.683594 376.875 1051.777344 401.765625 C 1054.839844 404.808594 1054.855469 409.765625 1051.808594 412.832031 C 1048.761719 415.894531 1043.804688 415.90625 1040.738281 412.863281 C 1028.378906 400.597656 1020.144531 385.808594 1014.71875 372.542969 L 1003.808594 441.8125 L 1029.097656 445.796875 L 1084.4375 418.546875 C 1087.109375 406.6875 1095.722656 367.546875 1101.066406 333.195312 C 1102.816406 321.949219 1103.386719 311.304688 1103.300781 301.8125 C 1102.820312 302.496094 1102.328125 303.167969 1101.816406 303.835938 C 1093.894531 314.207031 1082.097656 322.628906 1065.882812 328.203125 C 1061.785156 329.609375 1057.328125 327.425781 1055.921875 323.332031 C 1054.511719 319.230469 1056.699219 314.769531 1060.792969 313.367188 C 1073.9375 308.847656 1083.300781 302.28125 1089.371094 294.332031 C 1094.839844 287.175781 1097.746094 278.742188 1098.433594 269.558594 C 1099.148438 259.992188 1097.480469 249.570312 1093.796875 238.867188 C 1084.722656 212.460938 1063.675781 184.820312 1035.976562 163.65625 C 1004.535156 139.636719 968.375 121.644531 939.320312 109.433594 C 941.71875 114.109375 942.714844 118.796875 942.503906 123.410156 C 942.140625 131.34375 938.238281 138.550781 931.777344 144.738281 C 919.917969 156.089844 898.582031 164.402344 875.515625 166.988281 C 871.214844 167.460938 867.339844 164.359375 866.867188 160.058594 C 866.394531 155.761719 869.5 151.886719 873.796875 151.414062 C 893.613281 149.195312 911.496094 142.480469 920.925781 133.453125 C 924.539062 129.992188 926.703125 126.34375 926.867188 122.738281 C 927.035156 119.089844 925.195312 114.957031 920.816406 110.449219 C 914.199219 103.640625 902.714844 96.65625 885.09375 89.882812 L 884.921875 89.832031 C 884.414062 89.691406 883.921875 89.5 883.46875 89.265625 C 869.417969 83.988281 851.617188 78.839844 829.441406 74.011719 C 805.140625 68.714844 785.972656 66.5 771.046875 71.777344 C 756.640625 76.871094 745.300781 89.53125 735.6875 114.160156 L 715.191406 166.691406 C 708.230469 184.535156 704.242188 200.339844 705.730469 215.28125 C 707.082031 228.882812 713.070312 242.238281 725.664062 256.457031 C 730.816406 254.980469 740.238281 251.828125 750.5625 246.554688 C 758.277344 242.609375 766.449219 237.480469 773.574219 230.988281 C 776.773438 228.078125 781.730469 228.308594 784.640625 231.507812 C 787.554688 234.707031 787.320312 239.664062 784.121094 242.574219 C 775.917969 250.046875 766.527344 255.945312 757.671875 260.472656 C 746.773438 266.039062 736.582031 269.546875 730.453125 271.359375 L 721.199219 399.917969 C 729.144531 396.332031 741.109375 391.507812 756.210938 387.160156 C 760.375 385.976562 764.710938 388.390625 765.898438 392.554688 C 767.082031 396.71875 764.667969 401.058594 760.503906 402.242188 C 739.164062 408.390625 724.945312 415.253906 719.910156 417.867188 L 718.683594 434.933594 C 755.054688 418.898438 865.445312 381.964844 985.527344 457.386719 C 986.472656 451.382812 987.417969 445.378906 988.363281 439.371094 C 966.675781 424.960938 945.226562 414.476562 924.449219 407.050781 C 899.707031 398.207031 876.023438 393.761719 854.101562 392.222656 C 849.785156 391.933594 846.515625 388.203125 846.800781 383.882812 C 847.09375 379.566406 850.824219 376.296875 855.140625 376.585938 C 877.472656 378.152344 901.460938 382.539062 926.417969 391.117188 " fill-opacity="1" fill-rule="nonzero"/></g><g clip-path="url(#1ad554d840)"><g clip-path="url(#5e916492ba)"><g clip-path="url(#31dee61738)"><path fill="#bd3838" d="M 620.796875 953.679688 C 603.191406 954.214844 584.390625 951.609375 570.902344 940.277344 C 557.410156 928.945312 552.066406 906.71875 563.550781 893.359375 C 569.777344 886.109375 579.597656 882.757812 589.144531 882.339844 C 598.691406 881.917969 608.144531 884.097656 617.449219 886.257812 C 633.710938 890.039062 649.96875 893.816406 666.230469 897.59375 C 681.175781 901.070312 701.167969 902.253906 714.933594 908.914062 C 730.871094 916.625 709.820312 926.390625 701.796875 930.917969 C 690.117188 937.515625 677.679688 942.777344 664.816406 946.582031 C 650.875 950.699219 635.417969 954.007812 620.796875 953.679688 Z M 667.148438 870.84375 C 674.964844 873.292969 695.519531 880.3125 703.238281 875.925781 C 712.398438 870.714844 687.429688 859.886719 682.292969 856.71875 C 670.359375 849.363281 658.429688 842.007812 646.492188 834.652344 C 643.464844 832.785156 640.363281 830.886719 636.902344 830.070312 C 633.4375 829.253906 629.476562 829.683594 626.824219 832.054688 C 623.339844 835.164062 623.113281 840.785156 625.140625 844.992188 C 627.164062 849.199219 630.949219 852.261719 634.773438 854.945312 C 644.792969 861.777344 655.5625 867.214844 667.152344 870.839844 Z M 704.902344 1003.429688 C 713.195312 991.242188 724.9375 975.417969 731.90625 960.125 C 734.277344 954.929688 728.320312 949.910156 723.628906 953.164062 C 711.324219 961.699219 693.113281 973.824219 667.660156 984.125 C 638.234375 996.035156 605.164062 1001.453125 581.1875 1022.257812 C 569.792969 1032.148438 560.335938 1046.484375 562.558594 1061.410156 C 564.539062 1074.714844 575.921875 1085.453125 588.90625 1088.976562 C 601.886719 1092.496094 615.984375 1089.625 627.964844 1083.503906 C 640.902344 1076.894531 651.699219 1066.746094 661.824219 1056.390625 C 677.765625 1040.085938 692.074219 1022.28125 704.902344 1003.429688 Z M 704.902344 1003.429688 " fill-opacity="1" fill-rule="nonzero"/></g></g></g><g clip-path="url(#4e10afb15d)"><g clip-path="url(#cbee7d9bae)"><g transform="matrix(1, 0, 0, 1, 947, 827)"><g clip-path="url(#9b6f80ffeb)"><g clip-path="url(#2f5eb65e93)"><g clip-path="url(#212d39ea78)"><g clip-path="url(#788045ca6a)"><path fill="#bd3838" d="M 125.253906 128.136719 C 141.242188 131.84375 158.894531 132.902344 173.292969 125.019531 C 187.691406 117.132812 196.640625 97.804688 188.59375 83.496094 C 184.230469 75.734375 175.871094 70.875 167.222656 68.742188 C 158.578125 66.613281 149.546875 66.875 140.644531 67.148438 C 125.097656 67.625 109.554688 68.101562 94.003906 68.582031 C 79.714844 69.019531 61.226562 66.445312 47.4375 70.011719 C 31.464844 74.140625 48.910156 86.914062 55.414062 92.519531 C 64.878906 100.683594 75.277344 107.769531 86.332031 113.597656 C 98.316406 119.910156 111.835938 125.761719 125.253906 128.136719 Z M 98.058594 43.972656 C 90.472656 44.777344 70.402344 47.429688 64.15625 42.011719 C 56.738281 35.574219 81.53125 30.25 86.804688 28.296875 C 99.054688 23.757812 111.300781 19.222656 123.550781 14.683594 C 126.660156 13.53125 129.839844 12.363281 133.152344 12.253906 C 136.464844 12.140625 140.007812 13.257812 142 15.90625 C 144.613281 19.386719 143.789062 24.5625 141.171875 28.035156 C 138.550781 31.507812 134.53125 33.617188 130.546875 35.367188 C 120.140625 39.777344 109.308594 42.773438 98.054688 43.96875 Z M 39.308594 158.203125 C 33.960938 145.550781 26.128906 128.945312 22.558594 113.699219 C 21.34375 108.519531 27.703125 105.019531 31.394531 108.851562 C 41.078125 118.898438 55.496094 133.3125 76.867188 147.378906 C 101.574219 163.640625 130.796875 174.644531 148.898438 198.039062 C 157.496094 209.160156 163.519531 223.988281 158.753906 237.21875 C 154.511719 249.011719 142.148438 256.742188 129.640625 257.585938 C 117.136719 258.425781 104.78125 253.222656 94.953125 245.441406 C 84.34375 237.035156 76.335938 225.785156 68.976562 214.472656 C 57.398438 196.660156 47.578125 177.773438 39.308594 158.203125 Z M 39.308594 158.203125 " fill-opacity="1" fill-rule="nonzero"/></g></g></g></g></g></g></g></svg>